<svg data-icon="gavel-medium" fill="currentColor" viewBox="0 0 24 24" xmlns="http://www.w3.org/2000/svg" role="img"><path d="m23 15-7.7-7.1c1.1 0 2.2-.5 2.7-1.4.5-1 .3-2.1-.5-2.9l-2.8-2.8c-.5-.5-1.2-.8-1.8-.8s-1.3.3-1.8.7c-.6.6-.8 1.3-.7 2.1l-3.5 3.6c-1.1-.2-2.2.4-2.7 1.4s-.2 2.1.5 2.9l2.8 2.8c.8.8 1.9 1 2.9.5s1.5-1.5 1.4-2.6h.1l7 7.7c.7.8 1.8 1.2 2.9.9 1-.3 1.9-1.1 2.1-2.1.3-1.1-.1-2.2-.9-2.9zm-10.5-12.8c.2-.2.5-.2.7 0l2.8 2.8c.2 0 .2.3.2.5-.1.2-.2.4-.4.4s-.4 0-.5-.2l-2.8-2.8c-.2-.2-.2-.5 0-.7zm-2.7 9.9s-.2.1-.4.1-.3 0-.4-.1l-2.9-2.9c-.2-.2-.2-.5.1-.7.2-.2.5-.2.7 0l2.8 2.9c.2.2.2.5 0 .7zm.9-2.5-2.1-2.1 2.8-2.8 2.1 2.1zm11.3 7.7c0 .4-.4.6-.7.7s-.7 0-.9-.3l-7.1-7.8.6-.6 7.8 7.1c.3.2.4.6.3.9z"/><path d="m12.9 19c1.2 0 2.1.9 2.1 2v1c0 1.1-.9 2-2 2h-11c-1.1 0-2-.9-2-2v-1c0-1.1.9-2 2-2h.1c.2-.6.8-1 1.4-1h8c.6 0 1.2.4 1.4 1zm-10.9 2v1h11v-1z"/></svg>