<svg enable-background="new 0 0 16 16" viewBox="0 0 16 16" xmlns="http://www.w3.org/2000/svg"><path clip-rule="evenodd" d="m7.3.3c.4-.4 1-.4 1.4 0l4 4c.4.4.4 1 0 1.4-.3.3-.8.4-1.2.2l-1.1 1.1 2 2c.4 0 .8.1 1.1.4l2 2c.6.6.6 1.5 0 2.1s-1.5.6-2.1 0l-2-2c-.3-.3-.5-.7-.4-1.1l-2-2-1.1 1.1c.2.4.1.9-.2 1.2-.4.4-1 .4-1.4 0l-4-4c-.4-.4-.4-1 0-1.4.3-.3.8-.4 1.2-.2l3.6-3.7c-.2-.3-.1-.8.2-1.1zm1.2 2.6 1.6 1.6-3.6 3.6-1.6-1.6z" fill-rule="evenodd"/><path d="m2 13c-.6 0-1 .4-1 1-.6 0-1 .4-1 1s.4 1 1 1h7c.6 0 1-.4 1-1s-.4-1-1-1c0-.6-.4-1-1-1z"/></svg>