<svg enable-background="new 0 0 16 16" viewBox="0 0 16 16" xmlns="http://www.w3.org/2000/svg"><path clip-rule="evenodd" d="m2.8 6.3c.6.4 1 1 1 1.7s-.4 1.4-1 1.7l-.7.4 1 1.7.7-.4c.3-.2.7-.3 1-.3.4 0 .7.1 1 .3.6.4 1 1 1 1.7v.9h2.2v-.8c0-.7.4-1.4 1-1.7.6-.4 1.4-.4 2.1 0l.7.4 1-1.7-.7-.4c-.6-.4-1-1-1-1.7s.4-1.4 1-1.7l.7-.4-1-1.7-.7.4c-.6.4-1.4.4-2.1 0-.6-.4-1-1-1-1.7v-1h-2.1v.8c0 .7-.4 1.4-1 1.7-.6.4-1.4.4-2.1 0l-.7-.4-1 1.7zm-2.5 4.8c-.6-.9-.3-2.1.7-2.7l.8-.4-.8-.4c-1-.6-1.3-1.8-.7-2.7l1.1-1.7c.6-1 1.8-1.3 2.8-.7l.7.4v-.9c0-1.1.9-2 2.1-2h2c1.1 0 2.1.9 2.1 2v.8l.7-.4c1-.6 2.3-.2 2.8.7l1 1.7c.6 1 .2 2.2-.8 2.7l-.6.5.8.4c1 .6 1.3 1.8.8 2.7l-1.1 1.7c-.6 1-1.8 1.3-2.8.7l-.7-.4v.9c0 1.1-.9 2-2.1 2h-2.1c-1.1 0-2.1-.9-2.1-2v-.8l-.7.4c-1 .6-2.3.2-2.8-.7zm7.7-2.1c.6 0 1-.4 1-1s-.4-1-1-1-1 .4-1 1 .4 1 1 1zm0 2c-1.7 0-3.1-1.3-3.1-3s1.4-3 3.1-3 3.1 1.3 3.1 3-1.4 3-3.1 3z" fill-rule="evenodd"/></svg>