<svg class="icon-globe-large" enable-background="new 0 0 40 40" viewBox="0 0 40 40" xmlns="http://www.w3.org/2000/svg"><path d="m20 0c-.1 0-.2 0-.3 0s-.1 0-.2 0c-.2 0-.2 0-.4 0-10.7.5-19.1 9.2-19.1 20s8.4 19.5 19.1 20h.4.2.3c11.1 0 20-8.9 20-20s-8.9-20-20-20zm15.6 11h-8.1c-.8-3.7-2.2-6.7-3.7-8.6 5 1 9.3 4.3 11.8 8.6zm-9.1 9c0 2.5-.2 4.8-.6 7h-12.8c-.3-2.2-.6-4.5-.6-7s.2-4.8.6-7h12.8c.4 2.2.6 4.5.6 7zm-7.3-18h.4c.6 0 1.3.2 2 1 .8.8 1.7 2 2.4 3.7.5 1.2 1 2.7 1.3 4.3h-11.8c.4-1.6.9-3.1 1.5-4.3.7-1.7 1.6-2.9 2.4-3.7.6-.7 1.3-.9 1.8-1zm-4.2.8c-1.5 1.9-2.7 4.8-3.5 8.2h-7.1c2.4-4 6.1-7 10.6-8.2zm-13 17.2c0-2.5.5-4.8 1.4-7h7.7c-.3 2.2-.6 4.6-.6 7s.3 4.8.6 7h-7.7c-.9-2.2-1.4-4.5-1.4-7zm2.4 9h7.1c.8 3.5 2 6.3 3.5 8.3-4.5-1.3-8.3-4.3-10.6-8.3zm15.2 9h-.5c-.5-.1-1.1-.3-1.8-1-.8-.9-1.6-2-2.4-3.7-.5-1.2-1-2.7-1.4-4.3h11.9c-.3 1.5-.8 3.1-1.4 4.3-.7 1.7-1.6 2.9-2.4 3.7-.8.7-1.4 1-2 1zm4.1-.3c1.6-2 3-5 3.8-8.7h8.1c-2.6 4.5-6.8 7.6-11.9 8.7zm4.1-10.7c.3-2.2.6-4.5.6-7s-.2-4.8-.6-7h8.8c.9 2.2 1.4 4.5 1.4 7s-.5 4.8-1.4 7z"/></svg>