<svg class="icon-house-home-large" enable-background="new 0 0 40 40" viewBox="0 0 40 40" xmlns="http://www.w3.org/2000/svg"><path clip-rule="evenodd" d="m39.6 16.7-6.7-5.4v-8.3c0-.6-.4-1-1-1h-4c-.6 0-1 .4-1 1v3.4l-6.3-5.2c-.4-.3-1-.3-1.3 0l-18.9 15.5c-.4.3-.5 1-.1 1.3.3.4 1 .5 1.4.2l3.3-2.7v22.5c0 .6.4 1 1 1h9c.6 0 1-.4 1-1v-8c0-2.2 1.8-4 4-4s4 1.8 4 4v8c0 .6.4 1 1 1h9c.6 0 1-.4 1-1v-22.5l3.4 2.8c.4.3 1.1.2 1.4-.2s.2-1.1-.2-1.4zm-10.6-12.7h2v5.7l-2-1.7zm4 33h-7v-7.1c-.1-3.2-2.8-5.9-6-5.9-3.3 0-6 2.7-6 6v7h-7v-23.1l13-10.6 13 10.6z" fill-rule="evenodd"/></svg>