<svg enable-background="new 0 0 40 40" viewBox="0 0 40 40" xmlns="http://www.w3.org/2000/svg"><path clip-rule="evenodd" d="m19.3 1.2c.3-.3.9-.3 1.3 0l6.3 5.2v-3.4c0-.6.4-1 1-1h4c.6 0 1 .4 1 1v8.3l6.7 5.4c.4.3.5 1 .2 1.4s-1 .5-1.4.2l-3.4-2.8v22.5c0 .6-.4 1-1 1h-9c-.6 0-1-.4-1-1v-8c0-2.2-1.8-4-4-4s-4 1.8-4 4v8c0 .6-.4 1-1 1h-9c-.6 0-1-.4-1-1v-22.5l-3.3 2.7c-.4.3-1.1.2-1.4-.2-.4-.3-.3-1 .1-1.3zm11.7 8.5v-5.7h-2v4zm-24 4.2 13-10.6 13 10.6v23.1h-7v-7.1c-.1-3.2-2.8-5.9-6-5.9-3.3 0-6 2.7-6 6v7h-7z" fill-rule="evenodd"/></svg>