<svg enable-background="new 0 0 40 40" viewBox="0 0 40 40" xmlns="http://www.w3.org/2000/svg"><path clip-rule="evenodd" d="m40 19.1c-1.5-6.9-5.1-11.2-9.1-13.8-3.4-2.2-7-3-9.6-3.2v-.9c-.3-.7-.8-1.2-1.4-1.2s-1.1.5-1.1 1.2v1.2c-2.7.1-6.3.9-9.7 3.1-3.9 2.5-7.6 6.7-9.1 13.7-.1.4.1.9.5 1.2.3.2.8.2 1.2 0 .9-.6 2.7-1.4 4.6-1.3 1.8 0 3.6.8 4.8 3.2.1.2.2.4.5.5.6.2 1.2.1 1.5-.5.2-.4.8-1.1 2.1-1.8.9-.5 2.2-.8 3.6-1v14.8c0 1.9-1.5 3.4-3.3 3.4s-3.3-1.5-3.3-3.4v-1.3c0-.7-.5-1.2-1.1-1.2s-1.1.5-1.1 1.2v1.2c0 3.2 2.5 5.8 5.6 5.8s5.6-2.6 5.6-5.8v-14.7c1.4.2 2.7.5 3.6 1 1.2.6 1.9 1.3 2.1 1.8.2.6.9.8 1.5.5.2-.1.4-.3.5-.6 1.2-2.4 3-3.2 4.8-3.2 1.9 0 3.7.8 4.6 1.3.4.2.8.2 1.2 0 .3-.3.6-.7.5-1.2zm-29-.8c-1.4-1.1-3-1.6-4.6-1.6-1.3 0-2.5.3-3.6.6 1.6-4.8 4.4-8 7.5-9.9 2.3-1.4 4.5-2.3 6.5-2.6-4 4.3-5.6 9.6-5.8 13.5zm14.5.1c-1.5-.8-3.4-1.3-5.6-1.3s-4.1.6-5.6 1.3c-.4.2-.8.4-1.2.7.2-3.8 1.8-9.8 6.8-14.2 5 4.3 6.6 10.3 6.8 14.2-.3-.2-.7-.5-1.2-.7zm7.9-1.7c-1.6 0-3.2.5-4.6 1.6-.2-3.9-1.8-9.2-5.8-13.5 2 .3 4.2 1.2 6.5 2.6 3.1 1.9 5.9 5.1 7.5 9.9-1.1-.3-2.3-.6-3.6-.6z" fill-rule="evenodd"/></svg>