<svg fill="currentColor" viewBox="0 0 24 24" xmlns="http://www.w3.org/2000/svg" role="img"><path d="m12 0c6.628906 0 12 5.371094 12 12s-5.371094 12-12 12-12-5.371094-12-12 5.371094-12 12-12zm0 4.796875c-2.101562.011719-3.839844 1.648437-3.96875 3.75v2.277344c-.597656.128906-1.046875.621093-1.117188 1.226562v4.710938c0 .714843.542969 1.320312 1.257813 1.398437h7.511719c.722656 0 1.328125-.542968 1.40625-1.261718v-4.695313c0-.609375-.394532-1.152344-.976563-1.339844l-.113281-.039062v-2.054688c-.015625-2.199219-1.800781-3.972656-4-3.972656zm-.234375 7.828125c.683594.003906 1.234375.5625 1.234375 1.246094 0 .390625-.1875.761718-.5 1l-.121094.074218v1.390626h-1.234375v-1.386719c-.488281-.28125-.726562-.855469-.582031-1.398438.144531-.546875.636719-.925781 1.203125-.925781zm.234375-5.894531c1.050781.003906 1.902344.855469 1.90625 1.90625v2.023437h-3.804688v-2.023437c0-1.050781.847657-1.902344 1.898438-1.90625zm0 0"/></svg>