<svg class="icon-lock-medium" fill="currentColor" viewBox="0 0 24 24" xmlns="http://www.w3.org/2000/svg" role="img"><path d="m12 0c3.398438 0 6.148438 2.699219 6.351562 6.101562v3.5c1.75 0 3.148438 1.449219 3.148438 3.199219v8c0 1.75-1.398438 3.199219-3.148438 3.199219h-12.703124c-1.75 0-3.148438-1.449219-3.148438-3.199219v-8c0-1.75 1.398438-3.199219 3.148438-3.199219v-3.203124c0-3.546876 2.851562-6.398438 6.351562-6.398438zm0 12.800781c-1.300781 0-2.398438 1.050781-2.398438 2.398438 0 .699219.296876 1.351562.796876 1.800781v2.199219c0 .902343.703124 1.601562 1.601562 1.601562s1.601562-.699219 1.601562-1.601562v-2.199219c.5-.449219.796876-1.101562.796876-1.800781 0-1.347657-1.097657-2.398438-2.398438-2.398438zm0-9.601562c-1.648438 0-3.050781 1.300781-3.148438 2.949219v3.453124h6.347657v-3.203124c-.050781-1.75-1.449219-3.199219-3.199219-3.199219zm0 0"/></svg>