<svg fill="currentColor" viewBox="0 0 16 16" xmlns="http://www.w3.org/2000/svg"><path d="m1 8.5c-.5 0-1-.5-1-1.1v-2.1c0-.6.4-1.1 1-1.1.2-1.4 1.3-2.1 2.3-2.1h1.3c1.8 0 3.6-.5 5.1-1.4l.9-.5c1-.6 2.3-.3 3 .8.3.6.4 1 .4 1.6v1.8c1.1 0 2 .9 2 2.1s-.9 2.1-2 2.1v1.8c0 1.6-1.3 2.4-2.3 2.4-.4 0-.8-.1-1.1-.3l-.9-.5c-.9-.5-1.9-.9-2.9-1.1l1.2 3.7c.2.6-.1 1.1-.6 1.4-.5.2-1.1-.1-1.3-.7l-1.4-4.6h-1.4c-1-.1-2.1-.8-2.3-2.2zm2-.3c0 .2.1.3.3.3h1.3c1.9 0 3.7.4 5.4 1.2h.1c.2.1.4.2.6.3l.9.5h.2c.2 0 .3-.1.3-.3v-7.6c0-.1 0-.1 0-.2-.1-.1-.3-.2-.5-.1l-.9.5c-.2.1-.4.2-.6.3h-.1c-1.7.9-3.5 1.3-5.4 1.3h-1.3c-.1 0-.3.1-.3.3z"/></svg>