<svg data-icon="phone-medium" fill="currentColor" viewBox="0 0 24 24" xmlns="http://www.w3.org/2000/svg" role="img"><g fill-rule="evenodd"><path d="m18.1 0h-12.1c-1.1 0-2 .9-2 2v20c0 1.1.9 2 2 2h12c1.1 0 2-.9 2-2v-20c.1-1.1-.9-2-1.9-2zm-6.1 23c-.6 0-1-.5-1-1s.4-1 1-1 1 .5 1 1-.4 1-1 1zm6.1-3h-12.1v-18h3c0 .5.4 1 1 1h4c.6 0 1-.5 1-1h3v18z"/><path d="m18.1 0h-12.1c-1.1 0-2 .9-2 2v20c0 1.1.9 2 2 2h12c1.1 0 2-.9 2-2v-20c.1-1.1-.9-2-1.9-2zm-6.1 23c-.6 0-1-.5-1-1s.4-1 1-1 1 .5 1 1-.4 1-1 1zm6.1-3h-12.1v-18h3c0 .5.4 1 1 1h4c.6 0 1-.5 1-1h3v18z"/></g></svg>