<svg data-icon="shield-union-elected-medium" fill="currentColor" viewBox="0 0 24 24" xmlns="http://www.w3.org/2000/svg"><path d="m2 3.8h1.9c1.9 0 3.9-.6 5.4-1.9l2-1.7c.3-.3.9-.3 1.2 0l2 1.7c1.5 1.2 3.5 1.9 5.4 1.9h2.1c.6 0 1 .4 1 1v.1l-1.5 8.8c-.9 5-4.5 9-9.5 10.2-4.9-1.2-8.6-5.2-9.5-10.2l-1.5-8.7c-.1-.6.3-1.1 1-1.2zm18.8 2h-.7c-2.4 0-4.8-.9-6.7-2.3l-1.4-1.2-1.4 1.1c-1.9 1.6-4.3 2.4-6.7 2.4h-.7l1.3 7.6c.7 4 3.6 7.3 7.5 8.5 3.9-1.1 6.8-4.4 7.5-8.5l.1-.4h-3.6c0 2.2-1.8 4-4 4s-4-1.8-4-4v-5c0-.6.4-1 1-1s1 .4 1 1v5c0 1.1.9 2 2 2s2-.9 2-2v-5c0-.6.4-1 1-1s1 .4 1 1v3h3.9z"/></svg>