<svg data-icon="workplace-large" fill="currentColor" viewBox="0 0 40 40" xmlns="http://www.w3.org/2000/svg" role="img"><ellipse cx="10.6" cy="6.8" rx="1.9" ry="1.6"/><path d="m10.6 10.5c-1 0-1.9.7-1.9 1.6 0 .8.8 1.6 1.9 1.6s1.9-.7 1.9-1.6-.8-1.6-1.9-1.6z"/><ellipse cx="10.6" cy="17.3" rx="1.9" ry="1.6"/><ellipse cx="10.6" cy="22.7" rx="1.9" ry="1.6"/><ellipse cx="16.9" cy="6.8" rx="1.9" ry="1.6"/><path d="m16.9 13.7c1 0 1.9-.7 1.9-1.6 0-.8-.8-1.6-1.9-1.6-1 0-1.9.7-1.9 1.6s.8 1.6 1.9 1.6z"/><ellipse cx="16.9" cy="17.3" rx="1.9" ry="1.6"/><ellipse cx="16.9" cy="22.7" rx="1.9" ry="1.6"/><ellipse cx="23.1" cy="6.8" rx="1.9" ry="1.6"/><path d="m23.1 13.7c1 0 1.9-.7 1.9-1.6 0-.8-.8-1.6-1.9-1.6-1 0-1.9.7-1.9 1.6s.9 1.6 1.9 1.6z"/><ellipse cx="23.1" cy="17.3" rx="1.9" ry="1.6"/><ellipse cx="23.1" cy="22.7" rx="1.9" ry="1.6"/><ellipse cx="29.4" cy="6.8" rx="1.9" ry="1.6"/><path d="m29.4 13.7c1 0 1.9-.7 1.9-1.6 0-.8-.8-1.6-1.9-1.6-1 0-1.9.7-1.9 1.6s.8 1.6 1.9 1.6z"/><ellipse cx="29.4" cy="17.3" rx="1.9" ry="1.6"/><ellipse cx="29.4" cy="22.7" rx="1.9" ry="1.6"/><path d="m37.5 34.8v-32.7c0-1.2-1.1-2.1-2.5-2.1h-30c-1.4 0-2.5.9-2.5 2.1v32.7c-1.4 0-2.5.9-2.5 2.1v1.1c0 1.1 1.1 2 2.5 2h35c1.4 0 2.5-.9 2.5-2.1v-1.1c0-1.1-1.1-2-2.5-2zm-32.5-32.7h30v32.7h-8.8v-5.2c0-.6-.6-1.1-1.2-1.1 0-.6-.6-1.1-1.2-1.1h-7.5c-.7 0-1.2.5-1.2 1.1-.7 0-1.2.5-1.2 1.1v5.2h-8.9zm18.8 27.4v5.2h-2.5v-5.2zm-5 0v5.2h-2.5v-5.2zm18.7 8.4h-35v-1.1h35z"/></svg>