<svg data-icon="book-course-type-small" fill="currentColor" viewBox="0 0 16 16" xmlns="http://www.w3.org/2000/svg"><path d="m14.3 1.1c-1.3-.2-2.7-.1-3.9.1-.6.1-1.2.3-1.7.5-.3 0-.5.1-.7.2-.2-.1-.4-.2-.6-.2-.5-.2-1.1-.4-1.7-.5-1.3-.2-2.7-.3-4-.1-1 .1-1.7 1-1.7 1.9v9c0 1.1.9 2 2 2 2 0 3.2.1 5.7.9.1.1.2.1.3.1s.2 0 .3-.1c2.5-.8 3.7-.9 5.7-.9 1.1 0 2-.9 2-2v-9c0-.9-.7-1.8-1.7-1.9zm-7.3 11.6c-1.9-.6-3.2-.7-5-.7v-9c1.1-.1 2.3 0 3.3.2.5.1 1 .2 1.3.4.2 0 .3 0 .4.1zm7-.7c-1.8 0-3.1.1-5 .6v-9c.1 0 .2-.1.4-.2.4-.1.8-.2 1.3-.3 1-.1 2.2-.2 3.3-.1z"/></svg>