<svg enable-background="new 0 0 24 24" viewBox="0 0 24 24" xmlns="http://www.w3.org/2000/svg"><path clip-rule="evenodd" d="m23.5 8.8-11-6.7c-.3-.2-.7-.2-1.1 0l-11 6.7c-.2.2-.4.5-.4.8 0 .4.2.7.5.9l11 6.6c.3.2.7.2 1.1 0l6.5-3.9v2.9l-5.4 3.4c-1 .6-2.2.6-3.2 0l-5.5-3.4v-.4c0-.6-.5-1-1-1s-1 .4-1 1v1c0 .4.2.7.5.9l5.9 3.7c1.6 1 3.7 1 5.3 0l5.9-3.7c.3-.2.5-.5.5-.9v-4.7l1.7-1-1.2 4.9c-.1.3.1.6.3.8l1 .8c.3.2.6.2.9 0 .1-.1.2-.2.2-.4v-7.5c0-.3-.2-.7-.5-.8zm-11.5 6.3-9-5.5 9-5.4 9.1 5.4z" fill-rule="evenodd"/></svg>