<svg class="icon-fmark-small" fill="currentColor" viewBox="0 0 16 16" xmlns="http://www.w3.org/2000/svg" role="img"><path d="m10.2 4.1c-.1-.1-.3-.1-.4-.1h-.1c-.3.2-1 .5-2.1.9-.7.2-1.3.4-1.7.5-.3.1-.4.1-.6.2-.2 0-.3.1-.4.3-.1.1-.1.2-.1.4 0 .1.1.2.1.2.1 0 .2.1.3.1.2 0 .3.1.4.3.2.1.3.4.5 1 .4 1.3.7 2.2.8 2.6 0 .3 0 .4-.1.6-.1.1-.2.2-.2.2-.1.1-.1.2 0 .4 0 .1.1.2.2.3s.1 0 .2 0c.3 0 .7-.1 1.3-.3.7-.2 1.2-.5 1.6-.7.2-.2.3-.4.3-.6 0-.1-.1-.2-.2-.2-.1-.1-.2-.1-.2-.1-.2 0-.3 0-.3 0s-.1 0-.1-.1c-.2-0-.4-.3-.5-.9-.1-.2-.1-.3-.2-.4-.1-.1-.1-.2 0-.3 0-.1.1-.1.2-.2.2-.1.3-.1.5 0 .1 0 .1.1.2.1 0 .1.1.2.2.3.1.3.2.4.4.3s.3-.2.3-.4c.1-.3 0-.8-.2-1.3-.3-.8-.6-1.2-.9-1.1-.2.1-.3.3-.3.7v.3s-.2.1-.3.1c-.2.1-.3.1-.4.1s-.1-.1-.2-.2c-.1-.2-.1-.4-.2-.6 0-.3 0-.4 0-.5s.1-.2.3-.3c.5-.2.9-.3 1.1-.3s.4 0 .6.1c.3.2.5.3.6.3s.2 0 .3 0 .2-.1.3-.3c0-.1 0-.2-.1-.4-.3-.4-.5-.8-.9-1z"/><path d="m8 0c-4.4 0-8 3.6-8 8s3.6 8 8 8 8-3.6 8-8-3.6-8-8-8zm0 14c-3.3 0-6-2.7-6-6s2.7-6 6-6 6 2.7 6 6-2.7 6-6 6z"/></svg>