<svg fill="currentColor" viewBox="0 0 24 24" xmlns="http://www.w3.org/2000/svg" role="img"><path d="m15.7 4.8c-.2-.2-.4-.2-.7-.2l-.2.1c-1.3.6-2.7 1.2-4.1 1.6-1.3.5-2.4.8-3.4 1-.4.1-.8.2-1 .3-.3.2-.6.4-.8.7-.2.2-.2.5-.2.8 0 .2.1.3.3.4s.4.1.7.1.6.2.8.5c.3.7.6 1.4.8 2.1.6 1.6 1.1 3.3 1.5 5 .1.4 0 .8-.3 1.1-.1.1-.3.2-.4.4s-.2.5-.1.7.2.4.4.5c.2 0 .4.1.6.1.9-.1 1.7-.3 2.5-.6 1.1-.3 2.1-.8 3-1.3.4-.2.6-.7.5-1.1-.1-.2-.2-.3-.3-.4s-.3-.1-.5-.1-.4.1-.6.1c-.1 0-.2 0-.3-.1-.3-.1-.6-.7-.9-1.7l-.2-.8c-.1-.2-.1-.4-.1-.6.1-.2.3-.3.5-.3.3-.1.6-.1.9 0 .1.1.3.1.4.3s.2.4.3.6c.2.5.5.6.8.5s.6-.4.6-.7c.1-.9 0-1.7-.3-2.5-.6-1.7-1.2-2.4-1.9-2.2-.4.1-.6.5-.5 1.2 0 .2 0 .4-.1.5-.1.2-.3.3-.5.3-.3.1-.5.2-.8.1-.2 0-.3-.2-.4-.4-.1-.4-.2-.8-.3-1.2-.1-.3-.1-.6-.1-1 0-.2.2-.4.6-.6.7-.2 1.4-.4 2.1-.5.4 0 .8.1 1.1.3s.7.4 1.1.6h.5c.3-.2.5-.4.6-.7s.1-.6 0-1c-.3-.7-.9-1.4-1.6-1.9z"/><path d="m12 0c-6.6 0-12 5.4-12 12s5.4 12 12 12 12-5.4 12-12-5.4-12-12-12zm0 22c-5.5 0-10-4.5-10-10s4.5-10 10-10 10 4.5 10 10-4.5 10-10 10z"/></svg>
