<svg fill="currentColor" viewBox="0 0 40 40" xmlns="http://www.w3.org/2000/svg" role="img"><path d="m19.6 16-.6.6 1.8 1.8.6-.6c.6-.6.5-1.1-.1-1.7s-1.2-.6-1.7-.1z"/><path d="m37.7 4.1c0-.1 0-.2-.1-.3l2.1-2.1c.4-.4.4-1.1 0-1.4-.4-.4-1.1-.4-1.4 0l-2.1 2.1c-.1 0-.2 0-.3-.1l-13.7-2.1c-.7-.1-1.3.1-1.8.6l-19.8 20.3c-.8.8-.8 2.1 0 2.8l15.5 15.5c.8.8 2.1.8 2.8 0l20.3-19.8c.5-.5.7-1.1.6-1.8zm-17.2 22.1-4.6-1.5 3.1 3.1-1.6 1.6-7-7 1.6-1.6 2.8 2.8-1.4-4.2 2-2 1.3 5.4 5.8 1.5zm5.4-5.4-4-1.3 2.6 2.6-1.6 1.6-7-7 2.2-2.2c.4-.4.8-.8 1.3-.9.4-.2.8-.3 1.1-.3s.7.1 1 .3.6.3.8.4.4.3.6.6c1.2 1.2 1.3 2.3.4 3.5l4.5.8zm4.4-7.5c-2 0-3.6-1.6-3.6-3.6s1.6-3.6 3.6-3.6c.6 0 1.2.2 1.7.4l-1.6 1.6h-.1c-.8 0-1.5.7-1.5 1.5s.7 1.5 1.5 1.5 1.5-.7 1.5-1.5l1.6-1.6c.3.5.4 1.1.4 1.7.1 2-1.5 3.6-3.5 3.6z"/></svg>