<svg data-icon="target-group-large" fill="currentColor" viewBox="0 0 40 40" xmlns="http://www.w3.org/2000/svg"><path d="m39.7 3.3-2.2-.4c-.2 0-.2-.2-.2-.3l-.4-2.3c-.1-.3-.4-.4-.6-.2l-2 2c-.1 0-.2.1-.2.2l-.5 2.8-14.4 14.2c-.3-.1-.7-.2-1-.2-1.5 0-2.7 1.2-2.7 2.7s1.2 2.7 2.7 2.7 2.7-1.2 2.7-2.7c0-.3-.1-.7-.2-1l14.5-14.3 2.1-.5c.1 0 .1 0 .2-.1l2.5-2c.1-.2 0-.5-.3-.6z"/><path d="m31.4 13.2c1.7 2.5 2.7 5.5 2.7 8.8 0 8.8-7.2 15.9-16 15.9s-16-7.2-16-15.9c0-8.8 7.1-15.9 16-15.9 3.2 0 6.2 1 8.8 2.7l1.5-1.5c-2.9-2-6.5-3.3-10.3-3.3-10 0-18.1 8.1-18.1 17.9s8.1 18.1 18.1 18.1 18.1-8.1 18.1-18.1c0-3.8-1.2-7.4-3.3-10.3z"/><path d="m18.1 13.5c1.2 0 2.3.3 3.3.7l1.6-1.6c-1.5-.8-3.2-1.2-4.9-1.2-5.9 0-10.7 4.8-10.7 10.6s4.7 10.6 10.7 10.6c5.9 0 10.7-4.8 10.7-10.6 0-1.8-.4-3.4-1.2-4.9l-1.6 1.6c.4 1 .7 2.2.7 3.3 0 4.7-3.8 8.5-8.5 8.5s-8.6-3.8-8.6-8.5 3.8-8.5 8.5-8.5z"/></svg>