<svg fill="currentColor" viewBox="0 0 16 16" xmlns="http://www.w3.org/2000/svg" role="img"><g clip-rule="evenodd" fill-rule="evenodd"><path d="m11.8 6.5c.4.4 1.2.4 1.6 0l2.3-2.3c.4-.4.4-1.2 0-1.6l-2.3-2.3c-.4-.4-1.2-.4-1.6 0s-.4 1.2 0 1.6l.3.3h-.7c-2.4.1-4.5 1.6-5.3 3.8-.3.6-.4 1.3-.4 2 0 1.9-1.5 3.4-3.4 3.4h-1.2c-.6 0-1.1.5-1.1 1.1s.5 1.1 1.1 1.1h1.1c1.9 0 3.5-.9 4.6-2.3.1 0 .1-.1.2-.2.6-.9 1-2 1-3.2 0-1.9 1.5-3.4 3.4-3.4h.7l-.3.3c-.5.6-.5 1.3 0 1.7z"/><path d="m5.6 3.4c-.4.6-.8 1.2-1.1 2-.6-.5-1.4-.8-2.2-.8h-1.2c-.6 0-1.1-.5-1.1-1.2 0-.6.5-1.1 1.1-1.1h1.1c1.3 0 2.5.4 3.4 1.1z"/><path d="m11.8 9.5c.4-.4 1.2-.4 1.6 0l2.3 2.3c.4.4.4 1.2 0 1.6l-2.3 2.3c-.4.4-1.2.4-1.6 0s-.4-1.2 0-1.6l.3-.3h-.7c-1.2 0-2.4-.4-3.3-1.1.5-.6.9-1.3 1.1-2 .6.5 1.4.8 2.2.8h.7l-.3-.3c-.5-.6-.5-1.3 0-1.7z"/></g></svg>
