<svg class="icon-cross-in-circle-small" fill="currentColor" viewBox="0 0 16 16" xmlns="http://www.w3.org/2000/svg" role="img"><path d="m8 16c-4.433594 0-8-3.566406-8-8s3.566406-8 8-8 8 3.566406 8 8-3.566406 8-8 8zm0-2c3.300781 0 6-2.699219 6-6s-2.699219-6-6-6-6 2.699219-6 6 2.699219 6 6 6zm1.398438-6 1.402343 1.398438c.398438.402343.398438 1.035156 0 1.402343-.402343.398438-1.035156.398438-1.402343 0l-1.398438-1.402343-1.398438 1.402343c-.402343.398438-1.035156.398438-1.402343 0-.398438-.402343-.398438-1.035156 0-1.402343l1.402343-1.398438-1.402343-1.398438c-.398438-.402343-.398438-1.035156 0-1.402343.402343-.398438 1.035156-.398438 1.402343 0l1.398438 1.402343 1.398438-1.402343c.402343-.398438 1.035156-.398438 1.402343 0 .398438.402343.398438 1.035156 0 1.402343zm0 0"/></svg>