<svg data-icon="move-user-small" fill="currentColor" viewBox="0 0 16 16" xmlns="http://www.w3.org/2000/svg" role="img"><path d="m9.9 7.6.2-.5c.4-.9.6-1.9.6-2.8v-.8c0-2-1.6-3.5-3.6-3.5 0 0 0 0-.1 0-1.9 0-3.6 1.5-3.7 3.4l-.1.8c-.1 1 .1 2 .6 3l.4.8c0 .1-.1.1-.2.2-.7.2-1.4.4-2.1.6-1.1.2-1.9 1.2-1.9 2.3v1.4c0 .8.7 1.5 1.5 1.5h4.5c.6 0 1-.4 1-1s-.4-1-1-1h-4v-.9c0-.2.1-.4.3-.4.7-.2 1.5-.4 2.2-.6.8-.3 1.5-1 1.7-1.8v-.2-.2c0-.4-.1-.7-.2-.9l-.4-.8c-.3-.5-.5-1.2-.4-1.8l.1-.8c.1-.9.8-1.6 1.7-1.6h.1c.9 0 1.6.7 1.6 1.6v.8c0 .7-.1 1.3-.4 1.9l-.3.7c-.1.3-.2.5-.2.7v.2.2c0 .2.1.4.2.6l.5-.2z"/><path d="m15.7 11.3-3-3c-.4-.4-1-.4-1.4 0s-.4 1 0 1.4l1.3 1.3h-3.6c-.6 0-1 .4-1 1s.4 1 1 1h3.6l-1.3 1.3c-.4.4-.4 1 0 1.4s1 .4 1.4 0l3-3c.4-.4.4-1 0-1.4z"/></svg>