<svg data-icon="trash-can-delete-small" fill="currentColor" viewBox="0 0 16 16" xmlns="http://www.w3.org/2000/svg" role="img"><path d="m6 5c-.6 0-1 .4-1 1v6c0 .6.4 1 1 1s1-.4 1-1v-6c0-.6-.4-1-1-1z"/><path d="m15 2h-2-1.2c-.4-1.2-1.5-2-2.8-2h-2c-1.3 0-2.4.8-2.8 2h-1.2-2c-.6 0-1 .4-1 1s.4 1 1 1v10c0 1.1.9 2 2 2h10c1.1 0 2-.9 2-2v-10c.6 0 1-.4 1-1s-.4-1-1-1zm-2 12h-10v-10h2c.6 0 1-.4 1-1s.4-1 1-1h2c.6 0 1 .4 1 1s.4 1 1 1h2z"/><path d="m10 5c-.6 0-1 .4-1 1v6c0 .6.4 1 1 1s1-.4 1-1v-6c0-.6-.4-1-1-1z"/></svg>