<svg fill="currentColor" viewBox="0 0 16 16" xmlns="http://www.w3.org/2000/svg" role="img"><path d="m13 2h-1.167969c-.398437-1.167969-1.53125-2-2.832031-2h-2c-1.300781 0-2.433594.832031-2.832031 2h-3.167969c-.566406 0-1 .433594-1 1s.433594 1 1 1v10c0 1.101562.898438 2 2 2h10c1.101562 0 2-.898438 2-2v-10c.566406 0 1-.433594 1-1s-.433594-1-1-1zm0 2h-2c-.566406 0-1-.433594-1-1s-.433594-1-1-1h-2c-.566406 0-1 .433594-1 1s-.433594 1-1 1h-2v10h10zm-6 2c0-.566406-.433594-1-1-1s-1 .433594-1 1v6c0 .566406.433594 1 1 1s1-.433594 1-1zm4 0c0-.566406-.433594-1-1-1s-1 .433594-1 1v6c0 .566406.433594 1 1 1s1-.433594 1-1zm0 0" fill-rule="evenodd"/></svg>
