<svg fill="none" height="50" viewBox="0 0 195 50" width="195" xmlns="http://www.w3.org/2000/svg" xmlns:xlink="http://www.w3.org/1999/xlink"><clipPath id="a"><path d="m0 0h194.13v50h-194.13z"/></clipPath><clipPath id="b"><path d="m0 0h194.13v49.9784h-194.13z"/></clipPath><g clip-path="url(#a)"><g clip-path="url(#b)" fill="#FFF"><path d="m71.8915 16.3916v-5.3965h5.1925v5.3965z"/><path d="m103.265 16.3917v-5.3966h5.193v5.3966z"/><path d="m154.46 16.3917v-5.3966h5.193v5.3966z"/><path clip-rule="evenodd" d="m0 0h38.1284v49.9784h-38.1284zm10.5462 39.1497h6.4899v-17.4924h-6.4899zm17.0361 0h-6.49v-28.3211h6.49z" fill-rule="evenodd"/><path d="m57.5237 39.4621c-5.4645 0-8.8491-5.1502-8.8491-10.4379 0-5.1976 3.3218-10.4379 8.8491-10.4379 2.162 0 4.3972.9284 5.8872 2.5454v-10.1366h5.1925v28.0875h-4.8999l-.111-2.3427c-1.4545 1.8338-3.8106 2.7222-6.0688 2.7222zm1.1701-4.4788c3.1297 0 4.9-2.969 4.9-5.9591 0-2.9379-1.7317-5.9211-4.9-5.9211-3.1336 0-4.8268 2.9374-4.8268 5.9211 0 2.93 1.6218 5.9591 4.8268 5.9591z"/><path d="m71.8915 39.0827v-20.0788h5.1925v20.0788z"/><path d="m89.605 47.8126c-2.7663 0-5.9269-.7404-8.1546-2.5051l1.8285-3.8716c1.6696 1.2134 3.7821 1.8219 5.8134 1.8219 3.3918 0 5.5951-2.0129 5.5951-5.4656v-1.3737c-1.375 1.7744-3.726 2.6642-5.8871 2.6642-5.4159 0-9.2881-4.6073-9.2881-10.0963 0-5.3392 3.5582-10.4 9.142-10.4 2.3023 0 4.6314.9847 6.1785 2.7559l.0738-2.3384h4.9737v18.5606c0 6.0682-4.2509 10.2481-10.2752 10.2481zm.146-13.0569c3.129 0 5.0825-2.6605 5.0825-5.7693 0-3.0413-1.8967-5.7693-5.0825-5.7693-3.0965 0-5.0467 2.7162-5.0467 5.7693 0 3.0326 1.8569 5.7693 5.0467 5.7693z"/><path d="m103.265 39.0827v-20.0788h5.193v20.0788z"/><path d="m130.245 39.4622c-5.364 0-8.557-5.4035-8.557-10.4758 0-5.1524 3.278-10.4 8.776-10.4 2.345 0 4.605 1.0838 5.998 3.0498v-2.6323h5.155v20.0788h-5.228v-2.6233c-1.469 1.8961-3.791 3.0028-6.144 3.0028zm1.426-4.6685c3.16 0 4.864-2.8631 4.864-5.8073 0-2.9515-1.813-5.7693-4.864-5.7693-3.075 0-4.827 2.902-4.827 5.7693 0 2.9607 1.752 5.8073 4.827 5.8073z"/><path d="m145.397 39.0826v-28.0875h5.192v28.0875z"/><path d="m154.46 39.0827v-20.0788h5.193v20.0788z"/><path d="m170.245 39.4622c-3.059 0-6.212-.9671-8.191-3.4919l3.217-2.8847c1.383 1.5277 3.273 2.3533 5.303 2.3533 1.125 0 2.45-.5382 2.45-1.8978 0-1.7757-2.509-2.0731-3.766-2.4292-3.167-.838-6.583-2.5625-6.583-6.4525 0-3.9492 4.004-6.073 7.46-6.073 2.809 0 5.72 1.0407 7.715 3.1124l-2.778 3.1883c-1.243-1.218-2.998-2.3153-4.754-2.3153-1.173 0-2.597.4016-2.597 1.8219 0 1.1829 1.031 1.6145 1.938 1.9737 3.369 1.2712 8.301 1.9633 8.301 6.6803 0 4.1752-4.036 6.4145-7.715 6.4145z"/><path d="m188.938 39.0829v-5.3966h5.192v5.3966z"/><path d="m112.12 39.0826v-28.0875h5.192v8.0087h3.949v5.2083h-3.949v14.8705z"/><path d="m180.546 39.0826v-28.0875h5.193v8.0087h3.949v5.5963h-3.949v14.4825z"/></g></g></svg>