<svg fill="currentColor" viewBox="0 0 40 40" xmlns="http://www.w3.org/2000/svg" role="img"><path d="m12.6 20.8 1.7-10.6c-.7 0-1.8 0-1.8 0-.8 0-1.9-.5-2.2-1.3-.1-.3-.3-1.3 1-2.3.5-.3.8-.7.9-1s0-.6-.2-.8c-.3-.3-.9-.5-1.7-.5-1.3.1-2.2.8-2.3 1.4 0 .3.3.7.5.9.8.6 1 1.4.5 2.2s-1.6 1.4-2.8 1.4c0 0-1.2 0-1.8 0-.2 1-2.6 16.8-2.8 18.1h9.8c.1-.5.6-3.5 1.2-7.5z"/><path d="m1.1 32h4c1.7 0 2.1.9 2 1.7-.1.6-.5 1.1-1.3 1.4 1 .4 1.4.9 1.2 1.9-.2 1.1-1.2 2-2.4 2h-4.6zm2.6 2.9c.8 0 1.2-.4 1.2-.9.2-.6-.1-1-.9-1h-.7l-.3 1.8zm-.4 2.9c.8 0 1.3-.3 1.4-1 .1-.6-.2-.9-1-.9h-.8l-.3 1.9z"/><path d="m12.7 39c-1.1.1-1.6 0-1.8-.5-.6.3-1.2.5-1.9.5-1.2 0-1.6-.6-1.5-1.3.1-.3.2-.6.5-.9.7-.6 2.3-.6 2.9-1.1.1-.5-.1-.7-.7-.7s-1.2.3-2.2.9l.2-1.6c.9-.6 1.7-.9 2.7-.9 1.2 0 2.3.5 2.1 1.9l-.2 1.5c-.1.5-.1.7.5.7zm-1.8-2.4c-.6.4-1.6.3-1.7 1-.1.3.2.6.5.6s.7-.1 1.1-.4c0-.1 0-.3 0-.5z"/><path d="m14.6 33.5h2.1l-.1.7c.7-.6 1.2-.8 1.8-.8 1.2 0 1.7.7 1.5 1.9l-.5 3.5h-2.1l.5-2.9c.1-.5-.1-.8-.5-.8-.3 0-.6.2-.9.6l-.5 3.1h-2.1z"/><path d="m21.6 32h2.1l-.5 3.4 2-1.8h2.6l-2.6 2.3 2.1 3.1h-2.6l-1.6-2.5-.4 2.5h-2.1z"/><path d="m29.1 32h2.4l-1.1 6.9h-2.4z"/><path d="m32.7 32h3.5c2.7 0 3.4 1.9 3.2 3.6-.2 1.6-1.5 3.4-3.8 3.4h-3.9zm2.2 5.3c1.2 0 1.8-.6 2-1.8.1-.9-.1-1.8-1.4-1.8h-.6l-.6 3.6z"/><path d="m25.9 1h-10.1l-1.3 8.6h1.7c.9 0 1.8-.4 2.2-1.1.1-.2.2-.4.2-.5 0-.4-.2-.6-.5-.8-.7-.5-.8-1-.8-1.4 0-.1 0-.1 0-.2.1-.9 1.4-1.9 3-1.9 1 0 1.7.2 2.1.6s.5.9.4 1.4c-.1.7-.8 1.3-1.1 1.5-1 .7-.8 1.3-.8 1.5.2.5 1 .9 1.6.9h2.5c3.5 0 5.4 1.7 4.8 5.5-.6 3.5-3.3 5.1-6.5 5.1l-1.3 8.2h2c8 0 14.5-5.1 15.7-13.3 1.6-10.1-4.7-14.1-13.8-14.1z"/></svg>