<svg data-icon="chatbot-bubble" viewBox="0 0 90 80" fill="none" xmlns="http://www.w3.org/2000/svg">
  <ellipse cx="45" cy="40" rx="45" ry="40" fill="#17A624"/>
  <path fill-rule="evenodd" clip-rule="evenodd" d="M62.8126 36.5941H62.7909V23.1355C62.8032 22.5725 62.7013 22.0128 62.4915 21.4902C62.2816 20.9676 61.9681 20.4929 61.5699 20.0947C61.1717 19.6965 60.697 19.383 60.1744 19.1731C59.6518 18.9633 59.0921 18.8614 58.5291 18.8737C57.9719 18.8639 57.4186 18.9684 56.9033 19.1806C56.388 19.3928 55.9216 19.7082 55.5329 20.1075C55.1441 20.5068 54.8412 20.9814 54.6428 21.5022C54.4444 22.0229 54.3548 22.5788 54.3793 23.1355V45.4094C54.3793 51.5331 50.7904 55.0323 44.5322 55.0323C38.274 55.0323 34.6626 51.5331 34.6626 45.4094V23.1804C34.6872 22.6237 34.5975 22.0678 34.3991 21.547C34.2007 21.0263 33.8978 20.5516 33.5091 20.1524C33.1203 19.7531 32.6539 19.4376 32.1386 19.2254C31.6233 19.0133 31.07 18.9088 30.5129 18.9185C29.9498 18.9063 29.3901 19.0082 28.8675 19.218C28.3449 19.4278 27.8702 19.7413 27.472 20.1395C27.0738 20.5378 26.7603 21.0125 26.5505 21.5351C26.3406 22.0577 26.2387 22.6174 26.251 23.1804V44.8487C26.251 56.0641 33.2494 62.9504 44.5322 62.9504C55.8149 62.9504 62.7237 56.0641 62.7909 45.0057H62.8126V36.5941Z" fill="white"/>
  <path d="M82 80L71.9205 68L58 77.4286L82 80Z" fill="#17A624"/>
</svg>
