<svg fill="currentColor" viewBox="0 0 24 24" xmlns="http://www.w3.org/2000/svg" role="img"><path d="m6 11c0 .550781.449219 1 1 1h10c.550781 0 1-.449219 1-1s-.449219-1-1-1h-10c-.550781 0-1 .449219-1 1zm0 0"/><path d="m20 0h-11.601562c-.25 0-.5.101562-.699219.300781l-5.398438 5.398438c-.199219.199219-.300781.449219-.300781.699219v15.601562c0 1.101562.898438 2 2 2h16c1.101562 0 2-.898438 2-2v-20c0-1.101562-.898438-2-2-2zm-12 2.851562v3.148438h-3.148438zm12 19.148438h-16v-14h4c1.101562 0 2-.898438 2-2v-4h10zm0 0"/><path d="m16 18h-9c-.550781 0-1 .449219-1 1s.449219 1 1 1h9c.550781 0 1-.449219 1-1s-.449219-1-1-1zm0 0"/><path d="m7 16h7c.550781 0 1-.449219 1-1s-.449219-1-1-1h-7c-.550781 0-1 .449219-1 1s.449219 1 1 1zm0 0"/></svg>
