<svg fill="currentColor" viewBox="0 0 40 40" xmlns="http://www.w3.org/2000/svg" role="img"><path d="m20 39c10.5 0 19-8.5 19-19s-8.5-19-19-19-19 8.5-19 19 8.5 19 19 19z" fill="#fff5f3"/><g fill="#cd301e"><path d="m20 40c-11 0-20-9-20-20s9-20 20-20 20 9 20 20-9 20-20 20zm0-38c-9.9 0-18 8.1-18 18s8.1 18 18 18 18-8.1 18-18-8.1-18-18-18z"/><path d="m14 32c-.2 0-.4-.1-.6-.2-.4-.3-.5-1-.2-1.4 3.7-4.7 9.9-3.9 14.3-1 .5.3.6.9.3 1.4s-.9.6-1.4.3c-2.7-1.8-8.3-3.7-11.7.6-.1.2-.4.3-.7.3z"/><path d="m13 20c1.1 0 2-.9 2-2s-.9-2-2-2-2 .9-2 2 .9 2 2 2zm14 0c1.1 0 2-.9 2-2s-.9-2-2-2-2 .9-2 2 .9 2 2 2z"/></g></svg>