<svg fill="currentColor" viewBox="0 0 16 16" xmlns="http://www.w3.org/2000/svg" role="img"><path d="m7 1c0-.566406.433594-1 1-1s1 .433594 1 1h1c.566406 0 1 .433594 1 1s-.433594 1-1 1h-4c-.566406 0-1-.433594-1-1s.433594-1 1-1zm4.734375 3c.464844-.535156.765625-1.234375.765625-2h.5c1.101562 0 2 .898438 2 2v10c0 1.101562-.898438 2-2 2h-10c-1.101562 0-2-.898438-2-2v-10c0-1.101562.898438-2 2-2h.5c0 .765625.300781 1.464844.765625 2h-1.265625v10h10v-10zm-3.734375 6h3c.566406 0 1 .433594 1 1s-.433594 1-1 1h-3c-.566406 0-1-.433594-1-1s.433594-1 1-1zm0-4h3c.566406 0 1 .433594 1 1s-.433594 1-1 1h-3c-.566406 0-1-.433594-1-1s.433594-1 1-1zm-3 6c-.566406 0-1-.433594-1-1s.433594-1 1-1 1 .433594 1 1-.433594 1-1 1zm0-4c-.566406 0-1-.433594-1-1s.433594-1 1-1 1 .433594 1 1-.433594 1-1 1zm0 0"/></svg>