<svg class="icon-printer-small" fill="currentColor" viewBox="0 0 16 16" xmlns="http://www.w3.org/2000/svg" role="img"><path d="m14 4.535156v-3.535156c0-.566406-.433594-1-1-1h-10c-.566406 0-1 .433594-1 1v3.535156c-1.199219.699219-2 2-2 3.464844v5c0 .566406.433594 1 1 1h2v1c0 .566406.433594 1 1 1h8c.566406 0 1-.433594 1-1v-1h2c.566406 0 1-.433594 1-1v-5c0-1.464844-.800781-2.765625-2-3.464844zm-10-2.535156h8v2h-8zm7 12h-6v-2h6zm3-2h-1v-1c0-.566406-.433594-1-1-1h-8c-.566406 0-1 .433594-1 1v1h-1v-4.132812c.066406-1.035157.933594-1.867188 2-1.867188h8.132812c1.035157.066406 1.867188.933594 1.867188 2zm0 0"/></svg>