<svg data-icon="quote-large" fill="currentColor" viewBox="0 0 40 40" xmlns="http://www.w3.org/2000/svg" role="img"><path d="m20 0c-11.1 0-20 8.9-20 20s8.9 20 20 20 20-8.9 20-20-8.9-20-20-20zm-5.2 28.3c-1 1.3-1.9 2-2.7 2-.9 0-1.3-.4-1.3-1.3 0-.3.3-.8.8-1.4.9-1.1 1.7-2.3 2.3-3.8.7-1.4 1.1-2.5 1.1-3.2s-.4-1.1-1.2-1.1h-1.3c-.9-.1-1.7-.4-2.3-1.2-.7-.8-1-1.7-1-2.8 0-1.2.4-2.2 1.3-3.1s2-1.2 3.2-1.2c1.5 0 2.7.6 3.7 1.8s1.5 2.7 1.5 4.7c-.1 3.4-1.4 7-4.1 10.6zm11.9 0c-1.1 1.3-1.9 2-2.7 2s-1.2-.4-1.2-1.3c0-.3.2-.8.8-1.4.8-1.1 1.6-2.3 2.3-3.8.7-1.4 1.1-2.5 1.1-3.2s-.4-1.1-1.2-1.1h-1.3c-.9-.1-1.8-.4-2.4-1.2-.7-.8-1-1.7-1-2.8 0-1.2.4-2.2 1.3-3.1.9-.8 2-1.2 3.2-1.2 1.5 0 2.8.6 3.7 1.8 1 1.2 1.5 2.7 1.5 4.7 0 3.3-1.4 6.9-4.1 10.6z"/></svg>