<svg data-icon="unionen-opinion-small" fill="currentColor" viewBox="0 0 16 16" xmlns="http://www.w3.org/2000/svg"><path d="m9.2 11c-.4 0-.8.1-1.1.3l-1.4.9c-.3-.7-1-1.2-1.9-1.2h-1.9v-8.2h11.2v8.2h-5zm0 1.7s0 0-.1 0l-3.4 2.1c-.3.2-.7 0-.7-.4v-1.6s0-.2-.2-.2h-1.9c-1 0-1.9-.8-1.9-1.8v-8c0-1 .8-1.8 1.9-1.8h11.2c1 0 1.9.8 1.9 1.8v8.2c0 1-.8 1.8-1.9 1.8h-5zm-2.2-8.1c.9 0 1.3.4 1.3 1.3s-.2 2.2-.3 3.2h-1.3v-2c-.7-.1-1.1-.5-1.1-1.2s.4-1.3 1.3-1.3zm3 0c.9 0 1.3.4 1.3 1.3s-.2 2.2-.3 3.2h-1.3v-2c-.7-.1-1.1-.5-1.1-1.2s.4-1.3 1.3-1.3z" fill-rule="evenodd"/></svg>