<svg fill="currentColor" viewBox="0 0 24 24" xmlns="http://www.w3.org/2000/svg"><path d="m23.8 4.4c.2.4.2 1-.2 1.3l-.1.1-3.1 2c1.2 1 2.4 2.1 3.4 3.3.3.4.3.9 0 1.3-3.5 4.3-7.4 6.5-11.8 6.5-2.2 0-4.4-.6-6.3-1.7l-4.1 2.7c-.4.3-1.1.1-1.4-.3-.2-.4-.1-1 .2-1.3l.1-.1 22-14c.4-.4 1-.2 1.3.2zm-6.8 5.6-3 1.9c0 1.1-.9 2.1-2 2.1-.4 0-.7-.1-1-.2l-2.2 1.4c2 1.9 5.1 1.8 7-.2 1.3-1.4 1.7-3.3 1.2-5zm1.8-.8v.2c.6 1.8.5 3.7-.4 5.4 1-.8 2-1.6 2.8-2.5l.3-.4v-.1l-.1-.2c-.7-.8-1.6-1.7-2.6-2.4zm-6.9-4.2c.7 0 1.5.1 2.2.2.5.1.9.6.8 1.2-.1.5-.6.9-1.1.8s-1-.1-1.5-.1h-.7c-3.2.1-6.2 1.6-9 4.6l-.3.3.1.1c.2.3.5.5.7.7.4.3.4 1 .1 1.4-.4.4-1 .4-1.4.1l-.1-.1c-.5-.5-1-1.1-1.4-1.6-.3-.3-.3-.9 0-1.3 3.3-4.2 7.2-6.3 11.6-6.3z"/></svg>