<svg data-icon="eye-closed-small" fill="currentColor" viewBox="0 0 16 16" xmlns="http://www.w3.org/2000/svg"><path d="M15.8,3.4c.3.4.2,1,0,1.3h0c0,.1-1.8,1.4-1.8,1.4.7.6,1.4,1.3,2,2.1.3.4.3.9,0,1.2-2.2,2.9-4.9,4.4-7.8,4.4s-2.6-.3-3.8-.9l-2.6,1.9c-.4.3-1.1.2-1.4-.2s-.2-1,0-1.3h0c0-.1,14-10.1,14-10.1.5-.3,1.1-.2,1.4.2ZM12.1,7.3l-2.1,1.5v.2c0,1.1-.9,2-2,2s-.6-.1-.8-.2l-1,.7c.6.2,1.2.3,1.9.3h.3c1.9-.1,3.6-1,5.3-2.8l.2-.2h0c-.7-.6-1.2-1.1-1.7-1.5ZM6.5,4.1c.5-.1,1.1.3,1.2.8,0,.6-.3,1.1-.8,1.2-1.8.3-3.5,1.5-5.1,3.5-.3.4-1,.5-1.4.2-.4-.4-.5-1-.2-1.5,1.9-2.3,4-3.7,6.3-4.2Z"/></svg>