<svg data-icon="eye-closed-medium" fill="currentColor" viewBox="0 0 24 24" xmlns="http://www.w3.org/2000/svg"><path d="M23.8,5.4c.2.4.2,1-.2,1.3h-.1c0,0-3.1,2.1-3.1,2.1,1.2,1,2.4,2.1,3.4,3.3.3.4.3.9,0,1.3-3.5,4.3-7.4,6.5-11.8,6.5s-4.4-.6-6.3-1.7l-4.1,2.7c-.4.3-1.1,0-1.4-.3-.2-.4-.1-1,.2-1.3h.1c0,0,22-14,22-14,.4-.4,1-.2,1.3.2ZM17,11l-3,1.9c0,1.1-.9,2.1-2,2.1s-.7,0-1-.2l-2.2,1.4c2,1.9,5.1,1.8,7-.2,1.3-1.4,1.7-3.3,1.2-5ZM18.8,10.2v.2c.6,1.8.5,3.7-.4,5.4,1-.8,2-1.6,2.8-2.5l.3-.4h0c0,0-.1-.3-.1-.3-.7-.8-1.6-1.7-2.6-2.4ZM11.8,6c.7,0,1.5,0,2.2.2.5,0,.9.6.8,1.2-.1.5-.6.9-1.1.8s-1,0-1.5,0h-.7c-3.2,0-6.2,1.6-9,4.6l-.3.3h.1c.2.4.5.6.7.8.4.3.4,1,.1,1.4-.4.4-1,.4-1.4,0h-.1c-.5-.6-1-1.2-1.4-1.7-.3-.3-.3-.9,0-1.3,3.3-4.2,7.2-6.3,11.6-6.3Z"/></svg>