<svg data-icon="eye-open-medium" fill="currentColor" viewBox="0 0 24 24" xmlns="http://www.w3.org/2000/svg"><path d="M12.1,6c4.4,0,8.3,2.1,11.7,6.4.3.3.3.9,0,1.2-3.4,4.1-7.1,6.3-11.4,6.4h-.7c-4.2-.1-8.1-2.2-11.4-6.4-.3-.3-.3-.9,0-1.2,3.4-4.3,7.4-6.4,11.8-6.4ZM12.1,8c-2.7-.1-5,2.1-5.1,4.9,0,2.7,2.1,5.1,4.9,5.1h.2c2.7.1,5.1-2.1,5.1-4.9s-2.2-5.1-4.9-5.1h-.2ZM5.6,10c-1.1.8-2.1,1.6-3,2.6l-.3.4h-.1l.3.4c.9,1,1.9,1.9,3,2.6-.8-1.9-.8-4.1.1-6ZM18.4,10c.5,1,.7,2,.7,3s-.2,2.1-.6,3c1.1-.8,2.1-1.6,3-2.6l.3-.4h.1c0-.1-.3-.5-.3-.5-1-.9-2-1.7-3.2-2.5ZM12.1,11c1.1,0,2,.9,2,2s-.9,2-2,2-2-.9-2-2,.8-2,2-2ZM2.5,3.2h.1c0,0,1.5,1.6,1.5,1.6.4.4.4,1,.1,1.4-.4.4-1,.4-1.4.1h-.1c0-.1-1.5-1.6-1.5-1.6-.4-.4-.4-1-.1-1.4.4-.4,1-.4,1.4,0ZM22.8,3.3c.4.3.4.9.1,1.3h-.1c0,0-1.5,1.6-1.5,1.6-.4.4-1,.4-1.4.1-.4-.4-.4-.9-.1-1.4h.1c0,0,1.5-1.6,1.5-1.6.4-.4,1-.4,1.4,0ZM12.1,0c.6,0,1,.4,1,1v2c0,.6-.4,1-1,1s-1-.4-1-1V1C10.9.4,11.4,0,12.1,0Z"/></svg>