<svg fill="currentColor" viewBox="0 0 16 16" xmlns="http://www.w3.org/2000/svg" role="img"><path d="m15 2c.566406 0 1 .433594 1 1 0 .265625-.101562.5-.265625.667969-1.800781 1.964843-2.699219 4.066406-2.699219 6.332031v2c0 1.101562-.902344 2-2 2h-9.035156c-1.101562 0-2-.898438-2-2v-8c0-1.101562.898438-2 2-2zm-5.964844 2c-.570312 0-1 .433594-1 1v3.632812c-.070312.765626-.703125 1.367188-1.5 1.367188-.835937 0-1.5-.667969-1.5-1.5v-3.632812c-.070312-.5-.46875-.902344-1-.902344-.570312 0-1 .433594-1 1v3.703125c.097656 1.832031 1.632813 3.296875 3.5 3.296875 1.929688 0 3.5-1.566406 3.5-3.5v-3.597656c-.070312-.46875-.5-.867188-1-.867188zm0 0" fill-rule="evenodd"/></svg>
