<svg data-icon="fingerprint-personalized-small" fill="currentColor" viewBox="0 0 16 16" xmlns="http://www.w3.org/2000/svg"><path d="m8.6 2.7c3.2.3 5.9 2.8 6.4 7 .3 1.8-1 3.5-2.8 3.8-1.7.2-3.2-.9-3.6-2.7v-.2c-.3-1-.6-1.4-.9-1.4s-.5.1-.5.3c-.4 1.1.3 2.7.9 3.3l.2.2c.1.1.2.1.3.3.3.3.6.5.9.7.4.3.7.5 1.1.7.3.2.5.6.3.9s-.5.5-.9.3-.9-.5-1.3-.8-.7-.6-1-.8l-.4-.4c-.2-.2-.6-.8-.9-1.3l-.1-.1c-.6-1.2-.7-2.4-.3-3.5.3-.9 1.1-1.3 1.9-1.2.9.1 1.6 1 1.9 2.5.2 1.1 1.2 1.9 2.2 1.7 1.1-.1 1.8-1.1 1.7-2.2-.4-3.5-2.6-5.5-5.2-5.8-2.8-.2-5.4 1.4-6.2 3.8-.2.4-.5.6-.9.4-.3-.1-.5-.5-.4-.8 1-3.1 4.3-5.1 7.6-4.7zm-.3 2.6c2.2.2 3.7 2 4.1 4.7.1.4-.2.7-.6.7s-.7-.2-.7-.6c-.3-2.1-1.3-3.4-2.9-3.5-1.5-.1-3 .8-3.4 2-.9 2.8.7 4.9 1.6 5.8.2.2.3.6 0 .9s-.7.3-1 0c-1-1.1-2.9-3.6-1.8-7.1.5-1.8 2.6-3.1 4.7-2.9zm-.5-5.3c2 0 3.9.5 5.4 1.7.3.2.4.7.2 1s-.6.4-.9.2c-1.4-1-3-1.5-4.7-1.5-1.3 0-2.5.3-3.5.8-.8.3-1.5.8-2.1 1.4-.2.2-.7.2-.9-.1-.3-.3-.2-.7.1-1 .7-.6 1.5-1.2 2.4-1.6 1.1-.6 2.5-.9 4-.9z"/></svg>