<svg class="icon-fingerprint-personalized-medium" fill="currentColor" viewBox="0 0 24 24" xmlns="http://www.w3.org/2000/svg"><path d="m12.9 4c5.1.5 9.2 4.2 10.1 10.6.4 2.7-1.6 5.3-4.5 5.6-2.6.4-5-1.4-5.7-4l-.1-.2c-.3-1.5-.8-2-1.1-2.1-.4-.1-.8.1-.9.4-.6 1.7.5 4 1.4 4.9l.1.1.1.1.1.1c.1.1.3.2.4.4.4.4.9.7 1.3 1.1.6.4 1.2.8 1.7 1s.8.8.5 1.4c-.3.5-.8.7-1.3.5-.7-.3-1.4-.7-2-1.2-.6-.4-1.1-.8-1.6-1.2l-.3-.2-.4-.3c-.3-.3-1-1.2-1.4-2l-.1-.2c-.9-1.7-1.2-3.4-.5-5.1.5-1.3 1.8-1.9 3-1.7 1.4.1 2.4 1.4 3 3.7.4 1.7 1.9 2.8 3.5 2.6 1.7-.2 2.9-1.7 2.6-3.3-.7-5.3-4-8.3-8.2-8.7-4.3-.4-8.5 2-9.7 5.6-.2.5-.8.8-1.3.6s-.7-.8-.6-1.4c1.6-4.6 6.7-7.6 11.9-7.1zm-.4 4c3.5.3 5.9 2.9 6.4 7 .1.5-.3 1-.9 1.1s-1.1-.3-1.1-.8c-.5-3.2-2.1-5.1-4.6-5.3-2.3-.1-4.8 1.2-5.4 3-1.4 4.1 1.2 7.3 2.5 8.6.3.3.4.9 0 1.3-.5.5-1.1.4-1.6 0-1.6-1.6-4.6-5.4-2.9-10.7 1-2.6 4.3-4.5 7.6-4.2zm-.9-8c3.1 0 6.1.8 8.6 2.5.4.3.6 1 .3 1.4-.3.5-.9.6-1.4.2-2.3-1.4-4.8-2.1-7.5-2.1-2.1 0-3.9.4-5.5 1.2-1.1.6-2.2 1.3-3.2 2.1-.4.3-1 .3-1.4-.2-.4-.4-.3-1 .1-1.4 1.1-.9 2.3-1.7 3.7-2.4 1.9-.9 4-1.3 6.3-1.3z"/></svg>