<svg data-icon="information-outline-small" fill="currentColor" viewBox="0 0 16 16" xmlns="http://www.w3.org/2000/svg" role="img"><path d="m8.6 4.2c-.3 0-.5.1-.7.3-.2.1-.3.3-.3.6 0 .2.1.5.3.6.1.1.4.3.7.3s.5-.1.7-.3c.1-.2.3-.4.3-.6s-.1-.5-.3-.6c-.2-.3-.5-.3-.7-.3z"/><path d="m7.7 6.7c-.2 0-.5 0-.7.1-.3.2-.5.2-.8.4l-.2.4c.1 0 .1-.1.3-.1s.2-.1.3-.1c.2 0 .3 0 .4.1s.1.2.1.3v.3c0 .1-.1.3-.1.4l-.3 1.5c0 .1-.1.3-.1.4s0 .2 0 .4c0 .3.1.6.3.7.2.2.6.3.9.3s.5 0 .7-.1.4-.1.8-.3l.2-.4c-.1 0-.1.1-.3.1-.1 0-.2.1-.3.1-.2 0-.4 0-.4-.1-.1-.1-.1-.2-.1-.3s0-.1 0-.4c0-.1.1-.3.1-.4l.4-1.4c0-.1.1-.3.1-.4s0-.3 0-.4c0-.3-.1-.6-.3-.7-.3-.3-.6-.4-1-.4z"/><path d="m15 8c0-3.8-3.1-7-7-7s-7 3.2-7 7 3.2 7 7 7 7-3.1 7-7zm-7-5.5c3 0 5.5 2.5 5.5 5.5s-2.4 5.5-5.5 5.5c-3 0-5.5-2.4-5.5-5.5s2.5-5.5 5.5-5.5z"/></svg>