<svg fill="currentColor" viewBox="0 0 24 24" xmlns="http://www.w3.org/2000/svg" role="img"><path clip-rule="evenodd" d="m12 0c-6.6 0-12 5.3-12 12 0 6.6 5.4 12 12 12s12-5.4 12-12c0-6.7-5.4-12-12-12zm.1 19.1c-.9 0-1.7-.8-1.7-1.7 0-1 .8-1.7 1.7-1.7s1.7.8 1.7 1.7-.7 1.7-1.7 1.7zm4.1-8.7c-.1.2-.3.5-.5.8-.1.1-.2.2-.4.4v.1l-.2.1c-.1 0-.3.2-.3.2l-.3.3-.6.5c-.1 0-.1 0-.1.1h-.1c-.1 0-.1.1-.2.2s-.1.2-.1.3-.1.2-.1.3c0 .4-.1.7-.3.9-.2.3-.5.3-1 .3s-.9-.1-1.1-.4c-.1-.1-.1-.2-.2-.3 0-.1 0-.1 0-.1 0-.1 0-.1 0-.2v-.2-.1c0-.4 0-.8.2-1.1.1-.3.3-.6.6-.8.2-.2.5-.4.7-.6s.4-.2.5-.3c0 0 .1-.1.2-.2s.2-.2.3-.3.2-.2.3-.3c.1-.2.1-.3.2-.5 0-.1 0-.2 0-.3 0-.4-.1-.7-.2-.9-.3-.1-.5-.3-.7-.3s-.4-.1-.7-.1c-.6 0-.9.1-1.1.4-.1.3-.3.6-.3 1s-.1.8-.4 1c-.3.3-.6.4-.9.4-.4 0-.8-.1-1.1-.4-.3-.2-.4-.5-.4-.9 0-.2 0-.4 0-.6 0 0 .1-.1.1-.2s0-.1 0-.2.1-.3.2-.4c.1-.3.3-.6.4-.9s.4-.6.7-.8c.3-.1.6-.3.9-.5.1-.1.2-.1.3-.1.4-.1.9-.2 1.6-.2s1.3.1 1.9.3c.5.2 1 .5 1.4.8.7.7 1.1 1.7 1.1 2.8-.1.4-.2.7-.3 1z" fill-rule="evenodd"/></svg>