<svg class="icon-external-lnk-small" fill="currentColor" viewBox="0 0 16 16" xmlns="http://www.w3.org/2000/svg" role="img"><path d="m13.699219 3.898438-6.03125 6.066406c-.433594.433594-1.167969.433594-1.601563 0-.433594-.429688-.433594-1.164063 0-1.597656l6.035156-6.066407h-2.96875c-.632812 0-1.132812-.5-1.132812-1.132812 0-.632813.5-1.167969 1.132812-1.167969h5.699219c.667969 0 1.167969.5 1.167969 1.132812v5.699219c0 .632813-.5 1.132813-1.132812 1.132813-.632813 0-1.132813-.5-1.132813-1.132813v-2.933593zm0 7.535156c0-.632813.5-1.132813 1.132812-1.132813.632813 0 1.132813.5 1.132813 1.132813v1.132812c.035156 1.898438-1.5 3.433594-3.398438 3.433594h-9.132812c-1.898438 0-3.433594-1.535156-3.433594-3.433594v-9.132812c0-1.898438 1.535156-3.433594 3.433594-3.433594h1.132812c.632813 0 1.132813.5 1.132813 1.132812 0 .632813-.5 1.132813-1.132813 1.132813h-1.132812c-.632813 0-1.132813.5-1.132813 1.132813v9.136718c0 .632813.5 1.132813 1.132813 1.132813h9.132812c.632813 0 1.132813-.5 1.132813-1.132813zm0 0"/></svg>