<svg class="icon-grip-area-small" fill="currentColor" viewBox="0 0 16 16" xmlns="http://www.w3.org/2000/svg" role="img"><path d="m2 3c1.101562 0 2 .898438 2 2s-.898438 2-2 2-2-.898438-2-2 .898438-2 2-2zm0 0"/><path d="m14 3c1.101562 0 2 .898438 2 2s-.898438 2-2 2-2-.898438-2-2 .898438-2 2-2zm0 0"/><path d="m8 3c1.101562 0 2 .898438 2 2s-.898438 2-2 2-2-.898438-2-2 .898438-2 2-2zm0 0"/><path d="m2 9c1.101562 0 2 .898438 2 2s-.898438 2-2 2-2-.898438-2-2 .898438-2 2-2zm0 0"/><path d="m14 9c1.101562 0 2 .898438 2 2s-.898438 2-2 2-2-.898438-2-2 .898438-2 2-2zm0 0"/><path d="m8 9c1.101562 0 2 .898438 2 2s-.898438 2-2 2-2-.898438-2-2 .898438-2 2-2zm0 0"/></svg>