<svg fill="currentColor" viewBox="0 0 16 16" xmlns="http://www.w3.org/2000/svg" role="img"><path d="m13 0c1.101562 0 2 .898438 2 2v12c0 1.101562-.898438 2-2 2h-10c-1.101562 0-2-.898438-2-2v-12c0-1.101562.898438-2 2-2zm0 2h-10v12h10zm-8 8c.566406 0 1 .433594 1 1s-.433594 1-1 1-1-.433594-1-1 .433594-1 1-1zm6 0c.566406 0 1 .433594 1 1s-.433594 1-1 1h-3c-.566406 0-1-.433594-1-1s.433594-1 1-1zm-6-3c.566406 0 1 .433594 1 1s-.433594 1-1 1-1-.433594-1-1 .433594-1 1-1zm6 0c.566406 0 1 .433594 1 1s-.433594 1-1 1h-3c-.566406 0-1-.433594-1-1s.433594-1 1-1zm-6-3c.566406 0 1 .433594 1 1s-.433594 1-1 1-1-.433594-1-1 .433594-1 1-1zm6 0c.566406 0 1 .433594 1 1s-.433594 1-1 1h-3c-.566406 0-1-.433594-1-1s.433594-1 1-1zm0 0"/></svg>
