<svg class="icon-document-zip-medium" fill="currentColor" viewBox="0 0 24 24" xmlns="http://www.w3.org/2000/svg" role="img"><path d="m4 0h12l5 5v18c0 .550781-.449219 1-1 1h-16c-.550781 0-1-.449219-1-1v-22c0-.550781.449219-1 1-1zm0 0" fill="#eaeaea"/><path d="m3 17h18v6c0 .550781-.449219 1-1 1h-16c-.550781 0-1-.449219-1-1zm0 0" fill="#874593"/><path d="m16 0v5h5zm0 0" fill="#d3d3d3"/><path d="m15 18h2.5c.851562 0 1.5.648438 1.5 1.5s-.648438 1.5-1.5 1.5h-1.5v1.5c0 .300781-.199219.5-.5.5s-.5-.199219-.5-.5zm2.5 1h-1.5v1h1.5c.300781 0 .5-.199219.5-.5 0-.25-.199219-.449219-.398438-.5zm0 0" fill="#fff"/><path d="m11.5 23c-.300781 0-.5-.199219-.5-.5s.199219-.5.5-.5h.5v-3h-.5c-.300781 0-.5-.199219-.5-.5s.199219-.5.5-.5h2c.300781 0 .5.199219.5.5s-.199219.5-.5.5h-.5v3h.5c.300781 0 .5.199219.5.5s-.199219.5-.5.5zm0 0" fill="#fff"/><g fill="#c8bdb8"><path d="m13 3c0-.550781-.449219-1-1-1s-1 .449219-1 1v7c0 .550781.449219 1 1 1s1-.449219 1-1zm0 0"/><path d="m15 10v2c0 1.648438-1.351562 3-3 3s-3-1.351562-3-3v-2zm-1 1h-4v1c0 1.050781.800781 1.898438 1.851562 2h.148438c1.050781 0 1.898438-.800781 2-1.851562zm0 0"/><path d="m13.5 4h-3c-.300781 0-.5.199219-.5.5s.199219.5.5.5h3c.300781 0 .5-.199219.5-.5s-.199219-.5-.5-.5zm0 0"/><path d="m13.5 6h-3c-.300781 0-.5.199219-.5.5s.199219.5.5.5h3c.300781 0 .5-.199219.5-.5s-.199219-.5-.5-.5zm0 0"/><path d="m13.5 8h-3c-.300781 0-.5.199219-.5.5s.199219.5.5.5h3c.300781 0 .5-.199219.5-.5s-.199219-.5-.5-.5zm0 0"/><path d="m12.5 12h-1c-.300781 0-.5.199219-.5.5s.199219.5.5.5h1c.300781 0 .5-.199219.5-.5s-.199219-.5-.5-.5zm0 0"/></g><path d="m9.25 18c.351562 0 .601562.25.601562.601562 0 .148438-.050781.25-.101562.347657l-3.050781 3.050781h2.800781c.25 0 .449219.199219.5.398438v.101562c0 .25-.199219.449219-.398438.5h-3.851562c-.148438 0-.300781-.050781-.398438-.199219-.203124-.199219-.25-.550781-.050781-.75l.050781-.101562 2.949219-3h-2.800781c-.25 0-.449219-.199219-.5-.398438v-.101562c0-.25.199219-.449219.398438-.5h3.851562zm0 0" fill="#fff"/></svg>