<svg class="icon-document-txt-medium" viewBox="0 0 24 24" xmlns="http://www.w3.org/2000/svg"><path d="m4 0h12l5 5v18c0 .6-.4 1-1 1h-16c-.6 0-1-.4-1-1v-22c0-.6.4-1 1-1z" fill="#eaeaea"/><path d="m3 17h18v6c0 .6-.4 1-1 1h-16c-.6 0-1-.4-1-1z" fill="#95a5a5"/><path d="m16 0v5h5z" fill="#d3d3d3"/><g fill="#95a5a5"><path d="m8.5 5h-3c-.3 0-.5.2-.5.5s.2.5.5.5h3c.3 0 .5-.2.5-.5s-.2-.5-.5-.5z"/><path d="m9.5 7h-4c-.3 0-.5.2-.5.5s.2.5.5.5h4c.3 0 .5-.2.5-.5s-.2-.5-.5-.5z"/><path d="m13.5 9h-8c-.3 0-.5.2-.5.5s.2.5.5.5h8c.3 0 .5-.2.5-.5s-.2-.5-.5-.5z"/><path d="m7.5 11h-2c-.3 0-.5.2-.5.5s.2.5.5.5h2c.3 0 .5-.2.5-.5s-.2-.5-.5-.5z"/><path d="m13.5 11h-4c-.3 0-.5.2-.5.5s.2.5.5.5h4c.3 0 .5-.2.5-.5s-.2-.5-.5-.5z"/><path d="m18.5 11h-3c-.3 0-.5.2-.5.5s.2.5.5.5h3c.3 0 .5-.2.5-.5s-.2-.5-.5-.5z"/><path d="m15.5 7h-4c-.3 0-.5.2-.5.5s.2.5.5.5h4c.3 0 .5-.2.5-.5s-.2-.5-.5-.5z"/><path d="m18.5 7h-1c-.3 0-.5.2-.5.5s.2.5.5.5h1c.3 0 .5-.2.5-.5s-.2-.5-.5-.5z"/><path d="m18.5 9h-3c-.3 0-.5.2-.5.5s.2.5.5.5h3c.3 0 .5-.2.5-.5s-.2-.5-.5-.5z"/><path d="m10.5 13h-3c-.3 0-.5.2-.5.5s.2.5.5.5h3c.3 0 .5-.2.5-.5s-.2-.5-.5-.5z"/><path d="m6 13.5c0-.3-.2-.5-.5-.5s-.5.2-.5.5.2.5.5.5.5-.2.5-.5z"/></g><path d="m9.5 18c.3 0 .5.2.5.5s-.2.5-.5.5h-1.5v3.5c0 .3-.2.5-.5.5s-.5-.2-.5-.5v-3.5h-1.5c-.3 0-.5-.2-.5-.5s.2-.5.5-.5z" fill="#fff"/><path d="m18.5 18c.3 0 .5.2.5.5s-.2.5-.5.5h-1.5v3.5c0 .3-.2.5-.5.5s-.5-.2-.5-.5v-3.5h-1.5c-.3 0-.5-.2-.5-.5s.2-.5.5-.5z" fill="#fff"/><path d="m13.1 18.1c.2-.1.5-.2.7 0 .2.1.2.5.1.7l-1.3 1.7 1.2 1.7c.1.2.1.6-.1.7-.2.2-.4.2-.6 0l-.1-.1-1-1.4-1.1 1.4v.1c-.2.1-.5.2-.7 0-.2-.1-.2-.5-.1-.7l1.2-1.7-1.2-1.7c-.2-.2-.1-.6.1-.7.2-.2.4-.2.7 0v.1l1.1 1.4z" fill="#fff"/></svg>