<svg class="icon-document-ppt-medium" fill="currentColor" viewBox="0 0 24 24" xmlns="http://www.w3.org/2000/svg" role="img"><path d="m4 0h12l5 5v18c0 .550781-.449219 1-1 1h-16c-.550781 0-1-.449219-1-1v-22c0-.550781.449219-1 1-1zm0 0" fill="#eaeaea"/><path d="m3 17h18v6c0 .550781-.449219 1-1 1h-16c-.550781 0-1-.449219-1-1zm0 0" fill="#f55c18"/><path d="m16 0v5h5zm0 0" fill="#d3d3d3"/><path d="m5 18h2.5c.851562 0 1.5.648438 1.5 1.5s-.648438 1.5-1.5 1.5h-1.5v1.5c0 .300781-.199219.5-.5.5s-.5-.199219-.5-.5zm2.5 1h-1.5v1h1.5c.300781 0 .5-.199219.5-.5 0-.25-.199219-.449219-.398438-.5zm0 0" fill="#fff"/><path d="m10 18h2.5c.851562 0 1.5.648438 1.5 1.5s-.648438 1.5-1.5 1.5h-1.5v1.5c0 .300781-.199219.5-.5.5s-.5-.199219-.5-.5zm2.5 1h-1.5v1h1.5c.300781 0 .5-.199219.5-.5 0-.25-.199219-.449219-.398438-.5zm0 0" fill="#fff"/><path d="m18.5 18c.300781 0 .5.199219.5.5s-.199219.5-.5.5h-1.5v3.5c0 .300781-.199219.5-.5.5s-.5-.199219-.5-.5v-3.5h-1.5c-.300781 0-.5-.199219-.5-.5s.199219-.5.5-.5zm0 0" fill="#fff"/><path d="m12.5 5c.300781 0 .5.199219.5.5v.5h3c.550781 0 1 .449219 1 1v5c0 .550781-.449219 1-1 1h-1l.898438 1.199219c.152343.199219.101562.550781-.097657.699219-.199219.152343-.449219.152343-.652343-.046876l-.046876-.050781-1.351562-1.800781h-3.5l-1.351562 1.800781-.046876.050781c-.152343.148438-.453124.199219-.652343.046876-.199219-.148438-.25-.398438-.148438-.597657l.050781-.101562.898438-1.199219h-1c-.550781 0-1-.449219-1-1v-5c0-.550781.449219-1 1-1h3v-.5c0-.300781.199219-.5.5-.5zm3.5 2h-8v5h8zm0 0" fill="#95a5a5"/></svg>