<svg class="icon-document-pdf-medium" fill="currentColor" viewBox="0 0 24 24" xmlns="http://www.w3.org/2000/svg" role="img"><path d="m4 0h12l5 5v18c0 .550781-.449219 1-1 1h-16c-.550781 0-1-.449219-1-1v-22c0-.550781.449219-1 1-1zm0 0" fill="#eaeaea"/><path d="m3 17h18v6c0 .550781-.449219 1-1 1h-16c-.550781 0-1-.449219-1-1zm0 0" fill="#cc4b4c"/><path d="m16 0v5h5zm0 0" fill="#d3d3d3"/><path d="m11.449219 3.75c-.050781 0-.597657.75.050781 1.351562.398438-.902343 0-1.351562-.050781-1.351562zm.300781 3.5c-.300781 1.050781-.699219 2.148438-1.148438 3.148438.898438-.347657 1.898438-.648438 2.796876-.847657-.597657-.601562-1.199219-1.449219-1.648438-2.300781zm3.199219 2.75c.351562.25.449219.398438.652343.398438.097657 0 .398438 0 .5-.199219.046876-.097657.097657-.148438.097657-.148438-.050781-.050781-.097657-.101562-.5-.101562-.148438 0-.449219.050781-.75.050781zm-5.898438 1.851562c-.949219.5-1.300781.898438-1.351562 1.148438 0 .050781 0 .148438.199219.300781.101562 0 .453124-.199219 1.152343-1.449219zm-1.152343 2.148438c-.148438 0-.296876-.050781-.398438-.148438-.449219-.351562-.5-.703124-.5-.953124.101562-.699219.949219-1.398438 2.601562-2.097657.648438-1.351562 1.25-3.050781 1.648438-4.5-.449219-.902343-.851562-2.101562-.550781-2.75.101562-.25.25-.449219.5-.5.101562 0 .351562-.050781.402343-.050781.199219 0 .398438.25.546876.449219.152343.152343.402343.5-.148438 2.851562.601562 1.148438 1.398438 2.347657 2.199219 3.148438.550781-.097657 1.050781-.148438 1.449219-.148438.703124 0 1.101562.148438 1.25.449219.152343.25.101562.550781-.148438.898438-.25.300781-.550781.5-.949219.5-.550781 0-1.152343-.296876-1.800781-.949219-1.25.25-2.648438.699219-3.800781 1.199219-.347657.75-.699219 1.351562-1.050781 1.75-.5.550781-.847657.851562-1.25.851562zm0 0" fill="#cc4b4c"/><path d="m5 18h2.5c.851562 0 1.5.648438 1.5 1.5s-.648438 1.5-1.5 1.5h-1.5v1.5c0 .300781-.199219.5-.5.5s-.5-.199219-.5-.5zm2.5 1h-1.5v1h1.5c.300781 0 .5-.199219.5-.5 0-.25-.199219-.449219-.398438-.5zm0 0" fill="#fff"/><path d="m12 18c1.101562 0 2 .898438 2 2v1c0 1.050781-.800781 1.898438-1.851562 2h-2.148438v-5zm-1 4h1.050781c.5-.050781.847657-.398438.898438-.898438v-1.101562c0-.5-.398438-.949219-.898438-1h-1.050781zm0 0" fill="#fff"/><path d="m18.5 18c.300781 0 .5.199219.5.5s-.199219.5-.5.5h-2.5v1h1.5c.300781 0 .5.199219.5.5s-.199219.5-.5.5h-1.5v1.5c0 .300781-.199219.5-.5.5s-.5-.199219-.5-.5v-4.5zm0 0" fill="#fff"/></svg>