<svg data-icon="social-instagram-large" fill="currentColor" viewBox="0 0 40 40" xmlns="http://www.w3.org/2000/svg" role="img"><path d="m20 16.7c-1.8 0-3.3 1.5-3.3 3.3s1.5 3.3 3.3 3.3 3.3-1.5 3.3-3.3-1.5-3.3-3.3-3.3zm7.8-2.6c-.4-.9-1-1.6-1.9-1.9-1.3-.5-4.4-.4-5.9-.4s-4.6-.1-5.9.4c-.9.4-1.6 1-1.9 1.9-.5 1.3-.4 4.4-.4 5.9s-.1 4.6.4 5.9c.4.9 1 1.6 1.9 1.9 1.3.5 4.4.4 5.9.4s4.6.1 5.9-.4c.9-.4 1.6-1 1.9-1.9.5-1.3.4-4.4.4-5.9s.1-4.6-.4-5.9zm-7.8 11c-2.8 0-5.1-2.3-5.1-5.1s2.3-5.1 5.1-5.1 5.1 2.3 5.1 5.1-2.3 5.1-5.1 5.1zm5.3-9.2c-.7 0-1.2-.5-1.2-1.2s.5-1.2 1.2-1.2 1.2.5 1.2 1.2c0 .6-.5 1.2-1.2 1.2zm-5.3-15.9c-11.1 0-20 8.9-20 20s8.9 20 20 20 20-8.9 20-20-8.9-20-20-20zm9.9 24.1c-.1 1.6-.4 3-1.6 4.2s-2.6 1.5-4.2 1.6c-1.7.1-6.6.1-8.2 0s-3-.4-4.2-1.6-1.5-2.6-1.6-4.2c-.1-1.7-.1-6.6 0-8.3.1-1.6.4-3 1.6-4.2s2.6-1.5 4.2-1.6c1.7-.1 6.6-.1 8.2 0s3 .4 4.2 1.6 1.5 2.6 1.6 4.2c.1 1.7.1 6.7 0 8.3z"/></svg>